{"header":{"keySignatures":[],"meta":[],"name":"","ppq":960,"tempos":[],"timeSignatures":[]},"tracks":[{"channel":0,"controlChanges":{"123":[{"number":123,"ticks":51840,"time":27,"value":0}]},"pitchBends":[],"instrument":{"family":"piano","number":0,"name":"acoustic grand piano"},"name":"","notes":[{"duration":0.16822916666666668,"durationTicks":323,"midi":60,"name":"C4","ticks":0,"time":0,"velocity":0.5039370078740157},{"duration":0.16822916666666665,"durationTicks":323,"midi":65,"name":"F4","ticks":960,"time":0.5,"velocity":0.7401574803149606},{"duration":0.16822916666666665,"durationTicks":323,"midi":60,"name":"C4","ticks":1440,"time":0.75,"velocity":0.5039370078740157},{"duration":0.16822916666666665,"durationTicks":323,"midi":60,"name":"C4","ticks":2880,"time":1.5,"velocity":0.5039370078740157},{"duration":0.16822916666666687,"durationTicks":323,"midi":64,"name":"E4","ticks":3840,"time":2,"velocity":0.007874015748031496},{"duration":0.16822916666666687,"durationTicks":323,"midi":65,"name":"F4","ticks":4320,"time":2.25,"velocity":0.7401574803149606},{"duration":0.16822916666666687,"durationTicks":323,"midi":64,"name":"E4","ticks":5760,"time":3,"velocity":0.007874015748031496},{"duration":0.16822916666666687,"durationTicks":323,"midi":62,"name":"D4","ticks":6240,"time":3.25,"velocity":1},{"duration":0.16822916666666687,"durationTicks":323,"midi":62,"name":"D4","ticks":6720,"time":3.5,"velocity":1},{"duration":0.16822916666666687,"durationTicks":323,"midi":62,"name":"D4","ticks":7200,"time":3.75,"velocity":1},{"duration":0.16822916666666643,"durationTicks":323,"midi":62,"name":"D4","ticks":8640,"time":4.5,"velocity":1},{"duration":0.16822916666666643,"durationTicks":323,"midi":60,"name":"C4","ticks":9600,"time":5,"velocity":0.5039370078740157},{"duration":0.16822916666666643,"durationTicks":323,"midi":60,"name":"C4","ticks":10080,"time":5.25,"velocity":0.5039370078740157},{"duration":0.16822916666666643,"durationTicks":323,"midi":62,"name":"D4","ticks":11520,"time":6,"velocity":1},{"duration":0.16822916666666643,"durationTicks":323,"midi":64,"name":"E4","ticks":12480,"time":6.5,"velocity":0.007874015748031496},{"duration":0.16822916666666643,"durationTicks":323,"midi":64,"name":"E4","ticks":12960,"time":6.75,"velocity":0.007874015748031496},{"duration":0.16822916666666643,"durationTicks":323,"midi":64,"name":"E4","ticks":13920,"time":7.25,"velocity":0.007874015748031496},{"duration":0.16822916666666643,"durationTicks":323,"midi":65,"name":"F4","ticks":14400,"time":7.5,"velocity":0.7401574803149606},{"duration":0.16822916666666643,"durationTicks":323,"midi":62,"name":"D4","ticks":15840,"time":8.25,"velocity":1},{"duration":0.16822916666666643,"durationTicks":323,"midi":65,"name":"F4","ticks":17280,"time":9,"velocity":0.7401574803149606},{"duration":0.16822916666666643,"durationTicks":323,"midi":60,"name":"C4","ticks":17760,"time":9.25,"velocity":0.5039370078740157},{"duration":0.16822916666666643,"durationTicks":323,"midi":62,"name":"D4","ticks":18720,"time":9.75,"velocity":1},{"duration":0.16822916666666643,"durationTicks":323,"midi":64,"name":"E4","ticks":19680,"time":10.25,"velocity":0.007874015748031496},{"duration":0.16822916666666643,"durationTicks":323,"midi":62,"name":"D4","ticks":20640,"time":10.75,"velocity":1},{"duration":0.16822916666666643,"durationTicks":323,"midi":60,"name":"C4","ticks":21600,"time":11.25,"velocity":0.5039370078740157},{"duration":0.16822916666666643,"durationTicks":323,"midi":65,"name":"F4","ticks":23040,"time":12,"velocity":0.7401574803149606},{"duration":0.16822916666666643,"durationTicks":323,"midi":60,"name":"C4","ticks":23520,"time":12.25,"velocity":0.5039370078740157},{"duration":0.16822916666666643,"durationTicks":323,"midi":60,"name":"C4","ticks":24000,"time":12.5,"velocity":0.5039370078740157},{"duration":0.16822916666666643,"durationTicks":323,"midi":62,"name":"D4","ticks":24480,"time":12.75,"velocity":1},{"duration":0.16822916666666643,"durationTicks":323,"midi":62,"name":"D4","ticks":25920,"time":13.5,"velocity":1},{"duration":0.16822916666666643,"durationTicks":323,"midi":62,"name":"D4","ticks":26400,"time":13.75,"velocity":1},{"duration":0.16822916666666643,"durationTicks":323,"midi":64,"name":"E4","ticks":26880,"time":14,"velocity":0.007874015748031496},{"duration":0.16822916666666643,"durationTicks":323,"midi":65,"name":"F4","ticks":27360,"time":14.25,"velocity":0.7401574803149606},{"duration":0.16822916666666643,"durationTicks":323,"midi":65,"name":"F4","ticks":28800,"time":15,"velocity":0.7401574803149606},{"duration":0.16822916666666643,"durationTicks":323,"midi":62,"name":"D4","ticks":29280,"time":15.25,"velocity":1},{"duration":0.16822916666666643,"durationTicks":323,"midi":62,"name":"D4","ticks":29760,"time":15.5,"velocity":1},{"duration":0.16822916666666643,"durationTicks":323,"midi":62,"name":"D4","ticks":30240,"time":15.75,"velocity":1},{"duration":0.16822916666666643,"durationTicks":323,"midi":64,"name":"E4","ticks":31680,"time":16.5,"velocity":0.007874015748031496},{"duration":0.16822916666666643,"durationTicks":323,"midi":64,"name":"E4","ticks":33120,"time":17.25,"velocity":0.007874015748031496},{"duration":0.16822916666666643,"durationTicks":323,"midi":64,"name":"E4","ticks":34560,"time":18,"velocity":0.007874015748031496},{"duration":0.16822916666666643,"durationTicks":323,"midi":60,"name":"C4","ticks":35040,"time":18.25,"velocity":0.5039370078740157},{"duration":0.16822916666666643,"durationTicks":323,"midi":60,"name":"C4","ticks":35520,"time":18.5,"velocity":0.5039370078740157},{"duration":0.16822916666666643,"durationTicks":323,"midi":60,"name":"C4","ticks":36000,"time":18.75,"velocity":0.5039370078740157},{"duration":0.16822916666666643,"durationTicks":323,"midi":62,"name":"D4","ticks":37440,"time":19.5,"velocity":1},{"duration":0.16822916666666643,"durationTicks":323,"midi":62,"name":"D4","ticks":38880,"time":20.25,"velocity":1},{"duration":0.16822916666666643,"durationTicks":323,"midi":60,"name":"C4","ticks":40320,"time":21,"velocity":0.5039370078740157},{"duration":0.16822916666666643,"durationTicks":323,"midi":62,"name":"D4","ticks":41280,"time":21.5,"velocity":1},{"duration":0.16822916666666643,"durationTicks":323,"midi":64,"name":"E4","ticks":41760,"time":21.75,"velocity":0.007874015748031496},{"duration":0.16822916666666643,"durationTicks":323,"midi":64,"name":"E4","ticks":43200,"time":22.5,"velocity":0.007874015748031496},{"duration":0.16822916666666643,"durationTicks":323,"midi":65,"name":"F4","ticks":44640,"time":23.25,"velocity":0.7401574803149606}],"endOfTrackTicks":51840}]}