{"header":{"keySignatures":[],"meta":[],"name":"","ppq":960,"tempos":[],"timeSignatures":[]},"tracks":[{"channel":0,"controlChanges":{"123":[{"number":123,"ticks":23040,"time":12,"value":0}]},"pitchBends":[],"instrument":{"family":"piano","number":0,"name":"acoustic grand piano"},"name":"","notes":[{"duration":0.16822916666666668,"durationTicks":323,"midi":65,"name":"F4","ticks":0,"time":0,"velocity":0.7401574803149606},{"duration":0.16822916666666665,"durationTicks":323,"midi":65,"name":"F4","ticks":1440,"time":0.75,"velocity":0.7401574803149606},{"duration":0.16822916666666665,"durationTicks":323,"midi":64,"name":"E4","ticks":2880,"time":1.5,"velocity":0.007874015748031496},{"duration":0.16822916666666687,"durationTicks":323,"midi":62,"name":"D4","ticks":3840,"time":2,"velocity":1},{"duration":0.16822916666666687,"durationTicks":323,"midi":62,"name":"D4","ticks":4320,"time":2.25,"velocity":1},{"duration":0.16822916666666687,"durationTicks":323,"midi":64,"name":"E4","ticks":5760,"time":3,"velocity":0.007874015748031496},{"duration":0.125,"durationTicks":240,"midi":64,"name":"E4","ticks":6720,"time":3.5,"velocity":0.007874015748031496},{"duration":0.125,"durationTicks":240,"midi":64,"name":"E4","ticks":7200,"time":3.75,"velocity":0.007874015748031496},{"duration":0.16822916666666643,"durationTicks":323,"midi":60,"name":"C4","ticks":8640,"time":4.5,"velocity":0.5039370078740157},{"duration":0.16822916666666643,"durationTicks":323,"midi":65,"name":"F4","ticks":10080,"time":5.25,"velocity":0.7401574803149606},{"duration":0.16822916666666643,"durationTicks":323,"midi":60,"name":"C4","ticks":11520,"time":6,"velocity":0.5039370078740157},{"duration":0.16822916666666643,"durationTicks":323,"midi":62,"name":"D4","ticks":12000,"time":6.25,"velocity":1},{"duration":0.16822916666666643,"durationTicks":323,"midi":64,"name":"E4","ticks":12480,"time":6.5,"velocity":0.007874015748031496},{"duration":0.16822916666666643,"durationTicks":323,"midi":65,"name":"F4","ticks":12960,"time":6.75,"velocity":0.7401574803149606},{"duration":0.16822916666666643,"durationTicks":323,"midi":62,"name":"D4","ticks":14400,"time":7.5,"velocity":1},{"duration":0.16822916666666643,"durationTicks":323,"midi":60,"name":"C4","ticks":15360,"time":8,"velocity":0.5039370078740157},{"duration":0.16822916666666643,"durationTicks":323,"midi":62,"name":"D4","ticks":15840,"time":8.25,"velocity":1},{"duration":0.16822916666666643,"durationTicks":323,"midi":65,"name":"F4","ticks":17280,"time":9,"velocity":0.7401574803149606},{"duration":0.16822916666666643,"durationTicks":323,"midi":64,"name":"E4","ticks":18720,"time":9.75,"velocity":0.007874015748031496},{"duration":0.16822916666666643,"durationTicks":323,"midi":62,"name":"D4","ticks":20160,"time":10.5,"velocity":1},{"duration":0.16822916666666643,"durationTicks":323,"midi":60,"name":"C4","ticks":21600,"time":11.25,"velocity":0.5039370078740157}],"endOfTrackTicks":23040}]}