{
	"asset":{
		"generator":"Khronos glTF Blender I/O v4.0.44",
		"version":"2.0"
	},
	"scene":0,
	"scenes":[
		{
			"name":"Scene",
			"nodes":[
				0,
				1,
				2,
				3,
				4,
				5,
				6,
				7,
				8,
				9
			]
		}
	],
	"nodes":[
		{
			"mesh":0,
			"name":"Maison",
			"translation":[
				-0.16707031428813934,
				0.546337902545929,
				0
			]
		},
		{
			"mesh":1,
			"name":"FenetreCaro",
			"translation":[
				2.5020782947540283,
				3.088815212249756,
				0.3975249230861664
			]
		},
		{
			"mesh":2,
			"name":"Cube.002",
			"translation":[
				2.6666855812072754,
				4.485530376434326,
				0
			]
		},
		{
			"mesh":3,
			"name":"EmpacementFen\u00eatreCourb",
			"translation":[
				2.502078056335449,
				1.6740974187850952,
				-0.6491054892539978
			]
		},
		{
			"mesh":4,
			"name":"Fen\u00eatreCourbRebord",
			"translation":[
				2.4971234798431396,
				0.7884433269500732,
				-1.3212474584579468
			]
		},
		{
			"mesh":5,
			"name":"EmplacementFen\u00eatreDouble",
			"translation":[
				2.502078056335449,
				4.36152458190918,
				0.6395685076713562
			]
		},
		{
			"mesh":6,
			"name":"EmpacementFen\u00eatreCourb.001",
			"translation":[
				2.502422332763672,
				0.7779163122177124,
				1.3320132493972778
			]
		},
		{
			"mesh":7,
			"name":"Fen\u00eatreCourbRebord.001",
			"translation":[
				2.4971234798431396,
				0.7884433269500732,
				1.2548167705535889
			]
		},
		{
			"mesh":8,
			"name":"EmplacementPorte",
			"translation":[
				2.502077341079712,
				-0.3994396924972534,
				1.0014715194702148
			]
		},
		{
			"mesh":9,
			"name":"PorteEscalier",
			"translation":[
				2.4954731464385986,
				-1.888321876525879,
				-0.00020045052224304527
			]
		}
	],
	"materials":[
		{
			"doubleSided":true,
			"name":"Maison1",
			"pbrMetallicRoughness":{
				"baseColorFactor":[
					0.13799826800823212,
					0.13799826800823212,
					0.13799826800823212,
					1
				],
				"metallicFactor":0,
				"roughnessFactor":0.5
			}
		},
		{
			"doubleSided":true,
			"name":"BriqueContour",
			"pbrMetallicRoughness":{
				"baseColorFactor":[
					0.22465303540229797,
					0.22465303540229797,
					0.22465303540229797,
					1
				],
				"metallicFactor":0,
				"roughnessFactor":0.5
			}
		},
		{
			"doubleSided":true,
			"name":"vitre",
			"pbrMetallicRoughness":{
				"baseColorFactor":[
					0.05781614035367966,
					0.26327383518218994,
					0.3704640567302704,
					1
				],
				"metallicFactor":0,
				"roughnessFactor":0.5
			}
		},
		{
			"doubleSided":true,
			"name":"ToitBase",
			"pbrMetallicRoughness":{
				"baseColorFactor":[
					0.800000011920929,
					0.800000011920929,
					0.800000011920929,
					1
				],
				"metallicFactor":0,
				"roughnessFactor":0.5
			}
		},
		{
			"doubleSided":true,
			"name":"Tuiles",
			"pbrMetallicRoughness":{
				"baseColorFactor":[
					0.04187634214758873,
					0.0032273002434521914,
					0.001480392413213849,
					1
				],
				"metallicFactor":0,
				"roughnessFactor":0.5
			}
		},
		{
			"doubleSided":true,
			"name":"Porte",
			"pbrMetallicRoughness":{
				"baseColorFactor":[
					0.0599081851541996,
					0.01577736623585224,
					0.0002891457115765661,
					1
				],
				"metallicFactor":0,
				"roughnessFactor":0.5
			}
		}
	],
	"meshes":[
		{
			"name":"Cube.001",
			"primitives":[
				{
					"attributes":{
						"POSITION":0,
						"NORMAL":1,
						"TEXCOORD_0":2
					},
					"indices":3,
					"material":0
				}
			]
		},
		{
			"name":"Cylinder",
			"primitives":[
				{
					"attributes":{
						"POSITION":4,
						"NORMAL":5,
						"TEXCOORD_0":6
					},
					"indices":7,
					"material":1
				},
				{
					"attributes":{
						"POSITION":8,
						"NORMAL":9,
						"TEXCOORD_0":10
					},
					"indices":11,
					"material":2
				}
			]
		},
		{
			"name":"Cube.007",
			"primitives":[
				{
					"attributes":{
						"POSITION":12,
						"NORMAL":13,
						"TEXCOORD_0":14
					},
					"indices":15,
					"material":3
				},
				{
					"attributes":{
						"POSITION":16,
						"NORMAL":17,
						"TEXCOORD_0":18
					},
					"indices":19,
					"material":4
				}
			]
		},
		{
			"name":"Cube.008",
			"primitives":[
				{
					"attributes":{
						"POSITION":20,
						"NORMAL":21,
						"TEXCOORD_0":22
					},
					"indices":23,
					"material":0
				}
			]
		},
		{
			"name":"Cube.009",
			"primitives":[
				{
					"attributes":{
						"POSITION":24,
						"NORMAL":25,
						"TEXCOORD_0":26
					},
					"indices":27,
					"material":1
				},
				{
					"attributes":{
						"POSITION":28,
						"NORMAL":29,
						"TEXCOORD_0":30
					},
					"indices":31,
					"material":2
				}
			]
		},
		{
			"name":"Cube.010",
			"primitives":[
				{
					"attributes":{
						"POSITION":32,
						"NORMAL":33,
						"TEXCOORD_0":34
					},
					"indices":35,
					"material":0
				}
			]
		},
		{
			"name":"Cube.014",
			"primitives":[
				{
					"attributes":{
						"POSITION":36,
						"NORMAL":37,
						"TEXCOORD_0":38
					},
					"indices":23,
					"material":0
				}
			]
		},
		{
			"name":"Cube.015",
			"primitives":[
				{
					"attributes":{
						"POSITION":39,
						"NORMAL":40,
						"TEXCOORD_0":41
					},
					"indices":27,
					"material":1
				},
				{
					"attributes":{
						"POSITION":42,
						"NORMAL":43,
						"TEXCOORD_0":44
					},
					"indices":31,
					"material":2
				}
			]
		},
		{
			"name":"Cube.016",
			"primitives":[
				{
					"attributes":{
						"POSITION":45,
						"NORMAL":46,
						"TEXCOORD_0":47
					},
					"indices":48,
					"material":0
				}
			]
		},
		{
			"name":"Cube.017",
			"primitives":[
				{
					"attributes":{
						"POSITION":49,
						"NORMAL":50,
						"TEXCOORD_0":51
					},
					"indices":52,
					"material":0
				},
				{
					"attributes":{
						"POSITION":53,
						"NORMAL":54,
						"TEXCOORD_0":55
					},
					"indices":56,
					"material":1
				},
				{
					"attributes":{
						"POSITION":57,
						"NORMAL":58,
						"TEXCOORD_0":59
					},
					"indices":60,
					"material":5
				}
			]
		}
	],
	"accessors":[
		{
			"bufferView":0,
			"componentType":5126,
			"count":5184,
			"max":[
				2.680206775665283,
				3.9597346782684326,
				2.0953006744384766
			],
			"min":[
				-2.335008382797241,
				-4.046234607696533,
				-2.0953006744384766
			],
			"type":"VEC3"
		},
		{
			"bufferView":1,
			"componentType":5126,
			"count":5184,
			"type":"VEC3"
		},
		{
			"bufferView":2,
			"componentType":5126,
			"count":5184,
			"type":"VEC2"
		},
		{
			"bufferView":3,
			"componentType":5123,
			"count":23562,
			"type":"SCALAR"
		},
		{
			"bufferView":4,
			"componentType":5126,
			"count":1271,
			"max":[
				0.03345843032002449,
				1.110166072845459,
				0.03183266520500183
			],
			"min":[
				-0.08055425435304642,
				-0.04953181743621826,
				-0.8268826007843018
			],
			"type":"VEC3"
		},
		{
			"bufferView":5,
			"componentType":5126,
			"count":1271,
			"type":"VEC3"
		},
		{
			"bufferView":6,
			"componentType":5126,
			"count":1271,
			"type":"VEC2"
		},
		{
			"bufferView":7,
			"componentType":5123,
			"count":2880,
			"type":"SCALAR"
		},
		{
			"bufferView":8,
			"componentType":5126,
			"count":218,
			"max":[
				-0.022905204445123672,
				1.0601248741149902,
				-8.940696716308594e-08
			],
			"min":[
				-0.04501722753047943,
				-8.940696716308594e-08,
				-0.7950499057769775
			],
			"type":"VEC3"
		},
		{
			"bufferView":9,
			"componentType":5126,
			"count":218,
			"type":"VEC3"
		},
		{
			"bufferView":10,
			"componentType":5126,
			"count":218,
			"type":"VEC2"
		},
		{
			"bufferView":11,
			"componentType":5123,
			"count":498,
			"type":"SCALAR"
		},
		{
			"bufferView":12,
			"componentType":5126,
			"count":116,
			"max":[
				0.20357942581176758,
				0.7529566287994385,
				2.1113855838775635
			],
			"min":[
				-5.536951065063477,
				-0.06663145124912262,
				-2.1391639709472656
			],
			"type":"VEC3"
		},
		{
			"bufferView":13,
			"componentType":5126,
			"count":116,
			"type":"VEC3"
		},
		{
			"bufferView":14,
			"componentType":5126,
			"count":116,
			"type":"VEC2"
		},
		{
			"bufferView":15,
			"componentType":5123,
			"count":168,
			"type":"SCALAR"
		},
		{
			"bufferView":16,
			"componentType":5126,
			"count":8,
			"max":[
				0.20357942581176758,
				0.7529566287994385,
				2.109326124191284
			],
			"min":[
				-5.536951065063477,
				0.02932870388031006,
				-2.1391639709472656
			],
			"type":"VEC3"
		},
		{
			"bufferView":17,
			"componentType":5126,
			"count":8,
			"type":"VEC3"
		},
		{
			"bufferView":18,
			"componentType":5126,
			"count":8,
			"type":"VEC2"
		},
		{
			"bufferView":19,
			"componentType":5123,
			"count":12,
			"type":"SCALAR"
		},
		{
			"bufferView":20,
			"componentType":5126,
			"count":111,
			"max":[
				0.011058902367949486,
				0,
				1.1920928955078125e-07
			],
			"min":[
				-2.416782081127167e-07,
				-1.7994450330734253,
				-1.2848641872406006
			],
			"type":"VEC3"
		},
		{
			"bufferView":21,
			"componentType":5126,
			"count":111,
			"type":"VEC3"
		},
		{
			"bufferView":22,
			"componentType":5126,
			"count":111,
			"type":"VEC2"
		},
		{
			"bufferView":23,
			"componentType":5123,
			"count":309,
			"type":"SCALAR"
		},
		{
			"bufferView":24,
			"componentType":5126,
			"count":809,
			"max":[
				0.10931939631700516,
				0.7668400406837463,
				0.42994266748428345
			],
			"min":[
				-0.08301708102226257,
				-0.6918365359306335,
				-0.45139166712760925
			],
			"type":"VEC3"
		},
		{
			"bufferView":25,
			"componentType":5126,
			"count":809,
			"type":"VEC3"
		},
		{
			"bufferView":26,
			"componentType":5126,
			"count":809,
			"type":"VEC2"
		},
		{
			"bufferView":27,
			"componentType":5123,
			"count":1710,
			"type":"SCALAR"
		},
		{
			"bufferView":28,
			"componentType":5126,
			"count":154,
			"max":[
				0.007487594150006771,
				0.6964167356491089,
				0.372488796710968
			],
			"min":[
				-0.03555664047598839,
				-0.4337952136993408,
				-0.37699976563453674
			],
			"type":"VEC3"
		},
		{
			"bufferView":29,
			"componentType":5126,
			"count":154,
			"type":"VEC3"
		},
		{
			"bufferView":30,
			"componentType":5126,
			"count":154,
			"type":"VEC2"
		},
		{
			"bufferView":31,
			"componentType":5123,
			"count":360,
			"type":"SCALAR"
		},
		{
			"bufferView":32,
			"componentType":5126,
			"count":74,
			"max":[
				0,
				0,
				0
			],
			"min":[
				0,
				-1.7977125644683838,
				-1.2791368961334229
			],
			"type":"VEC3"
		},
		{
			"bufferView":33,
			"componentType":5126,
			"count":74,
			"type":"VEC3"
		},
		{
			"bufferView":34,
			"componentType":5126,
			"count":74,
			"type":"VEC2"
		},
		{
			"bufferView":35,
			"componentType":5123,
			"count":222,
			"type":"SCALAR"
		},
		{
			"bufferView":36,
			"componentType":5126,
			"count":111,
			"max":[
				0.010714574716985226,
				0.8961811661720276,
				0.5981698036193848
			],
			"min":[
				-0.0003445680777076632,
				-0.9032638669013977,
				-0.6866945624351501
			],
			"type":"VEC3"
		},
		{
			"bufferView":37,
			"componentType":5126,
			"count":111,
			"type":"VEC3"
		},
		{
			"bufferView":38,
			"componentType":5126,
			"count":111,
			"type":"VEC2"
		},
		{
			"bufferView":39,
			"componentType":5126,
			"count":809,
			"max":[
				0.10931939631700516,
				0.7668400406837463,
				0.42994266748428345
			],
			"min":[
				-0.08301708102226257,
				-0.6918365359306335,
				-0.45139166712760925
			],
			"type":"VEC3"
		},
		{
			"bufferView":40,
			"componentType":5126,
			"count":809,
			"type":"VEC3"
		},
		{
			"bufferView":41,
			"componentType":5126,
			"count":809,
			"type":"VEC2"
		},
		{
			"bufferView":42,
			"componentType":5126,
			"count":154,
			"max":[
				0.007487594150006771,
				0.6964167356491089,
				0.372488796710968
			],
			"min":[
				-0.03555664047598839,
				-0.4337952136993408,
				-0.37699976563453674
			],
			"type":"VEC3"
		},
		{
			"bufferView":43,
			"componentType":5126,
			"count":154,
			"type":"VEC3"
		},
		{
			"bufferView":44,
			"componentType":5126,
			"count":154,
			"type":"VEC2"
		},
		{
			"bufferView":45,
			"componentType":5126,
			"count":96,
			"max":[
				7.117952236512792e-07,
				0,
				0
			],
			"min":[
				1.1525321497174446e-07,
				-3.1004555225372314,
				-2.0029430389404297
			],
			"type":"VEC3"
		},
		{
			"bufferView":46,
			"componentType":5126,
			"count":96,
			"type":"VEC3"
		},
		{
			"bufferView":47,
			"componentType":5126,
			"count":96,
			"type":"VEC2"
		},
		{
			"bufferView":48,
			"componentType":5123,
			"count":390,
			"type":"SCALAR"
		},
		{
			"bufferView":49,
			"componentType":5126,
			"count":277,
			"max":[
				0.45303887128829956,
				1.3111881017684937,
				0.6493058204650879
			],
			"min":[
				-0.10188955068588257,
				-1.6115732192993164,
				-0.6489049196243286
			],
			"type":"VEC3"
		},
		{
			"bufferView":50,
			"componentType":5126,
			"count":277,
			"type":"VEC3"
		},
		{
			"bufferView":51,
			"componentType":5126,
			"count":277,
			"type":"VEC2"
		},
		{
			"bufferView":52,
			"componentType":5123,
			"count":696,
			"type":"SCALAR"
		},
		{
			"bufferView":53,
			"componentType":5126,
			"count":574,
			"max":[
				0.04425309970974922,
				1.3111881017684937,
				0.6493058204650879
			],
			"min":[
				-0.10188955068588257,
				-1.2965624332427979,
				-0.6489049196243286
			],
			"type":"VEC3"
		},
		{
			"bufferView":54,
			"componentType":5126,
			"count":574,
			"type":"VEC3"
		},
		{
			"bufferView":55,
			"componentType":5126,
			"count":574,
			"type":"VEC2"
		},
		{
			"bufferView":56,
			"componentType":5123,
			"count":1212,
			"type":"SCALAR"
		},
		{
			"bufferView":57,
			"componentType":5126,
			"count":114,
			"max":[
				0.00332330702804029,
				1.1658085584640503,
				0.55536288022995
			],
			"min":[
				-0.03839391842484474,
				-1.259058952331543,
				-0.5581082105636597
			],
			"type":"VEC3"
		},
		{
			"bufferView":58,
			"componentType":5126,
			"count":114,
			"type":"VEC3"
		},
		{
			"bufferView":59,
			"componentType":5126,
			"count":114,
			"type":"VEC2"
		},
		{
			"bufferView":60,
			"componentType":5123,
			"count":264,
			"type":"SCALAR"
		}
	],
	"bufferViews":[
		{
			"buffer":0,
			"byteLength":62208,
			"byteOffset":0,
			"target":34962
		},
		{
			"buffer":0,
			"byteLength":62208,
			"byteOffset":62208,
			"target":34962
		},
		{
			"buffer":0,
			"byteLength":41472,
			"byteOffset":124416,
			"target":34962
		},
		{
			"buffer":0,
			"byteLength":47124,
			"byteOffset":165888,
			"target":34963
		},
		{
			"buffer":0,
			"byteLength":15252,
			"byteOffset":213012,
			"target":34962
		},
		{
			"buffer":0,
			"byteLength":15252,
			"byteOffset":228264,
			"target":34962
		},
		{
			"buffer":0,
			"byteLength":10168,
			"byteOffset":243516,
			"target":34962
		},
		{
			"buffer":0,
			"byteLength":5760,
			"byteOffset":253684,
			"target":34963
		},
		{
			"buffer":0,
			"byteLength":2616,
			"byteOffset":259444,
			"target":34962
		},
		{
			"buffer":0,
			"byteLength":2616,
			"byteOffset":262060,
			"target":34962
		},
		{
			"buffer":0,
			"byteLength":1744,
			"byteOffset":264676,
			"target":34962
		},
		{
			"buffer":0,
			"byteLength":996,
			"byteOffset":266420,
			"target":34963
		},
		{
			"buffer":0,
			"byteLength":1392,
			"byteOffset":267416,
			"target":34962
		},
		{
			"buffer":0,
			"byteLength":1392,
			"byteOffset":268808,
			"target":34962
		},
		{
			"buffer":0,
			"byteLength":928,
			"byteOffset":270200,
			"target":34962
		},
		{
			"buffer":0,
			"byteLength":336,
			"byteOffset":271128,
			"target":34963
		},
		{
			"buffer":0,
			"byteLength":96,
			"byteOffset":271464,
			"target":34962
		},
		{
			"buffer":0,
			"byteLength":96,
			"byteOffset":271560,
			"target":34962
		},
		{
			"buffer":0,
			"byteLength":64,
			"byteOffset":271656,
			"target":34962
		},
		{
			"buffer":0,
			"byteLength":24,
			"byteOffset":271720,
			"target":34963
		},
		{
			"buffer":0,
			"byteLength":1332,
			"byteOffset":271744,
			"target":34962
		},
		{
			"buffer":0,
			"byteLength":1332,
			"byteOffset":273076,
			"target":34962
		},
		{
			"buffer":0,
			"byteLength":888,
			"byteOffset":274408,
			"target":34962
		},
		{
			"buffer":0,
			"byteLength":618,
			"byteOffset":275296,
			"target":34963
		},
		{
			"buffer":0,
			"byteLength":9708,
			"byteOffset":275916,
			"target":34962
		},
		{
			"buffer":0,
			"byteLength":9708,
			"byteOffset":285624,
			"target":34962
		},
		{
			"buffer":0,
			"byteLength":6472,
			"byteOffset":295332,
			"target":34962
		},
		{
			"buffer":0,
			"byteLength":3420,
			"byteOffset":301804,
			"target":34963
		},
		{
			"buffer":0,
			"byteLength":1848,
			"byteOffset":305224,
			"target":34962
		},
		{
			"buffer":0,
			"byteLength":1848,
			"byteOffset":307072,
			"target":34962
		},
		{
			"buffer":0,
			"byteLength":1232,
			"byteOffset":308920,
			"target":34962
		},
		{
			"buffer":0,
			"byteLength":720,
			"byteOffset":310152,
			"target":34963
		},
		{
			"buffer":0,
			"byteLength":888,
			"byteOffset":310872,
			"target":34962
		},
		{
			"buffer":0,
			"byteLength":888,
			"byteOffset":311760,
			"target":34962
		},
		{
			"buffer":0,
			"byteLength":592,
			"byteOffset":312648,
			"target":34962
		},
		{
			"buffer":0,
			"byteLength":444,
			"byteOffset":313240,
			"target":34963
		},
		{
			"buffer":0,
			"byteLength":1332,
			"byteOffset":313684,
			"target":34962
		},
		{
			"buffer":0,
			"byteLength":1332,
			"byteOffset":315016,
			"target":34962
		},
		{
			"buffer":0,
			"byteLength":888,
			"byteOffset":316348,
			"target":34962
		},
		{
			"buffer":0,
			"byteLength":9708,
			"byteOffset":317236,
			"target":34962
		},
		{
			"buffer":0,
			"byteLength":9708,
			"byteOffset":326944,
			"target":34962
		},
		{
			"buffer":0,
			"byteLength":6472,
			"byteOffset":336652,
			"target":34962
		},
		{
			"buffer":0,
			"byteLength":1848,
			"byteOffset":343124,
			"target":34962
		},
		{
			"buffer":0,
			"byteLength":1848,
			"byteOffset":344972,
			"target":34962
		},
		{
			"buffer":0,
			"byteLength":1232,
			"byteOffset":346820,
			"target":34962
		},
		{
			"buffer":0,
			"byteLength":1152,
			"byteOffset":348052,
			"target":34962
		},
		{
			"buffer":0,
			"byteLength":1152,
			"byteOffset":349204,
			"target":34962
		},
		{
			"buffer":0,
			"byteLength":768,
			"byteOffset":350356,
			"target":34962
		},
		{
			"buffer":0,
			"byteLength":780,
			"byteOffset":351124,
			"target":34963
		},
		{
			"buffer":0,
			"byteLength":3324,
			"byteOffset":351904,
			"target":34962
		},
		{
			"buffer":0,
			"byteLength":3324,
			"byteOffset":355228,
			"target":34962
		},
		{
			"buffer":0,
			"byteLength":2216,
			"byteOffset":358552,
			"target":34962
		},
		{
			"buffer":0,
			"byteLength":1392,
			"byteOffset":360768,
			"target":34963
		},
		{
			"buffer":0,
			"byteLength":6888,
			"byteOffset":362160,
			"target":34962
		},
		{
			"buffer":0,
			"byteLength":6888,
			"byteOffset":369048,
			"target":34962
		},
		{
			"buffer":0,
			"byteLength":4592,
			"byteOffset":375936,
			"target":34962
		},
		{
			"buffer":0,
			"byteLength":2424,
			"byteOffset":380528,
			"target":34963
		},
		{
			"buffer":0,
			"byteLength":1368,
			"byteOffset":382952,
			"target":34962
		},
		{
			"buffer":0,
			"byteLength":1368,
			"byteOffset":384320,
			"target":34962
		},
		{
			"buffer":0,
			"byteLength":912,
			"byteOffset":385688,
			"target":34962
		},
		{
			"buffer":0,
			"byteLength":528,
			"byteOffset":386600,
			"target":34963
		}
	],
	"buffers":[
		{
			"byteLength":387128,
			"uri":"Maison1.bin"
		}
	]
}
